<?xml version="1.0" encoding="utf-8" ?><svg xmlns="http://www.w3.org/2000/svg" xmlns:xlink="http://www.w3.org/1999/xlink" width="1024" height="1024" viewBox="0 0 1024 1024"><path fill="#1C1F18" d="M0 0L1024 0L1024 1024L0 1024L0 0Z"/><path fill="#62B98C" d="M430.465 298.256C437.933 302.057 449.066 309.347 456.578 313.963C470.218 322.362 483.924 330.653 497.694 338.836C541.252 337.291 646.924 342.641 682.238 368.607C686.876 372.017 691.897 376.946 692.613 382.92C693.098 386.967 691.277 390.685 688.799 393.768C670.719 416.26 603.249 424.327 575.118 427.394C547.899 429.969 520.556 431.002 493.22 430.486C453.76 429.878 356.233 423.38 325.139 398.048C321.244 394.874 316.939 390.444 316.568 385.182C316.281 381.117 318.283 377.52 320.817 374.503C338.8 353.09 404.026 343.076 431.038 340.915L430.465 298.256Z"/><path fill="#1C1F18" d="M441.474 320.819C461.689 334.707 486.255 346.651 505.876 360.766C499.989 365.529 491.197 370.954 484.791 374.989C475.188 380.928 465.682 387.022 456.276 393.267C450.63 397.045 444.842 400.605 438.924 403.94L438.989 387.722C451.907 378.533 466.202 369.918 479.355 360.779C466.901 352.746 453.991 345.516 441.433 337.424C441.38 331.938 441.455 326.316 441.474 320.819Z"/><path fill="#1C1F18" d="M520.492 359.578C537.823 359.379 555.621 359.637 572.97 359.734C573.011 367.877 573.186 376.478 572.925 384.578C555.162 385.141 538.235 384.961 520.471 384.759C520.408 376.365 520.415 367.972 520.492 359.578Z"/><path fill="#62B98C" d="M345.771 415.252C377.543 427.54 409.068 430.76 442.886 434.02C508.465 440.341 602.81 439.185 664.149 415.149C650.062 424.633 634.638 430.416 618.378 435.344C615.907 436.093 606.894 437.605 605.948 439.427L607.59 441.268C607.196 444.31 584.454 461.417 586.72 473.722C592.257 503.791 612.458 510.214 604.206 544.756C610.011 550.909 615.971 556.882 621.834 562.977C622.073 564.847 617.559 569.956 616.071 571.123C605.847 584.023 593.401 597.485 583.652 610.157C582.673 609.276 581.661 608.538 580.618 607.736C578.491 606.103 567.729 592.662 565.122 589.566C553.86 576.521 541.093 560.514 524.686 554.385C513.425 550.179 500.152 549.42 494.053 536.733C493.023 534.589 492.39 531.776 491.439 529.405C484.149 524.761 476.689 518.683 469.329 513.733C462.984 509.465 454.865 504.721 449.001 500.087C448.263 499.504 443.002 491.041 442.008 489.475L426.625 465.174C426.421 465.361 425.534 466.204 425.334 466.317C418.188 462.186 411.393 453.688 403.738 448.853C405.533 446.615 407.295 444.351 409.023 442.061C422.758 446.046 444.502 448.735 459.038 449.816C465.443 455.788 471.695 464.653 477.15 471.566C482.652 478.536 483.318 481.122 491.188 485.976C488.648 470.834 487.76 465.913 481.711 451.582L494.128 452.01C503.4 468.398 510.99 483.39 519.414 500.257C508.611 496.138 505.007 492.507 495.524 487.574C504.181 496.017 520.243 507.149 530.616 514.159C534.931 517.076 548.503 518.533 553.542 523.879C558.703 529.357 559.332 532.245 560.93 539.078C561.146 532.43 561.086 526.393 556.085 521.169C543.135 507.644 532.032 515.698 518.929 501.586C527.468 501.884 549.293 500.722 555.858 494.577C560.092 490.613 560.701 483.81 560.506 478.284C560.026 464.698 561.849 456.328 571.434 446.173C511.479 451.98 445.909 451.9 387.855 434.175C373.2 429.7 358.3 424.196 345.771 415.252Z"/><path fill="#4FA87B" d="M565.122 589.566C566.037 588.707 579.327 586.494 581.012 586.686C588.723 587.568 612.733 571.097 616.071 571.123C605.847 584.023 593.401 597.485 583.652 610.157C582.673 609.276 581.661 608.538 580.618 607.736C578.491 606.103 567.729 592.662 565.122 589.566Z"/><path fill="#1C1F18" d="M425.334 466.317C423.549 463.311 418.045 456.362 415.905 453.053C415.52 452.456 410.972 449.307 409.428 447.699L409.471 446.858C410.927 445.648 410.213 445.756 411.624 445.793C415.833 448.529 423.601 460.553 426.625 465.174C426.421 465.361 425.534 466.204 425.334 466.317Z"/><path fill="#1C1F18" d="M433.099 450.877C446.281 451.32 469.405 491.127 477 502.467C478.956 505.388 489.096 522.787 489.21 525.477C476.843 507.746 463.487 483.574 450.003 467.444C446.851 463.705 443.304 460.317 439.423 457.341C437.807 456.114 433.344 453.517 432.524 452.514L433.099 450.877Z"/><path fill="#2F6A4C" d="M621.834 562.977C623.112 561.545 624.104 560.014 625.726 559.479C627.828 561.114 639.778 571.238 640.528 572.916C645.164 578.13 663.074 592.63 669.299 597.646C683.03 608.713 696.895 621.744 710.461 632.629C697.419 651.61 684.498 670.674 671.7 689.82C664.849 699.986 657.069 710.526 650.748 720.876C641.644 713.979 629.936 702.994 621.211 695.223L573.264 652.563C577.485 647.373 582.731 642.604 586.602 637.827C580.905 632.263 574.75 626.773 568.962 621.204C573.647 617.121 576.689 612.532 580.618 607.736C581.661 608.538 582.673 609.276 583.652 610.157C593.401 597.485 605.847 584.023 616.071 571.123C617.559 569.956 622.073 564.847 621.834 562.977Z"/><path fill="#1C1F18" d="M621.834 562.977C623.112 561.545 624.104 560.014 625.726 559.479C627.828 561.114 639.778 571.238 640.528 572.916C631.243 585.551 620.949 597.482 610.815 609.469C604.873 616.497 596.67 627.217 590.459 633.413C588.92 635.019 587.948 636.064 586.602 637.827C580.905 632.263 574.75 626.773 568.962 621.204C573.647 617.121 576.689 612.532 580.618 607.736C581.661 608.538 582.673 609.276 583.652 610.157C593.401 597.485 605.847 584.023 616.071 571.123C617.559 569.956 622.073 564.847 621.834 562.977Z"/><path d="M580.618 607.736C581.661 608.538 582.673 609.276 583.652 610.157C581.375 613.143 579.029 616.076 576.617 618.954C581.187 623.924 585.928 628.33 590.459 633.413C588.92 635.019 587.948 636.064 586.602 637.827C580.905 632.263 574.75 626.773 568.962 621.204C573.647 617.121 576.689 612.532 580.618 607.736Z"/></svg>